<?xml version="1.0" encoding="UTF-8" standalone="no"?>
<svg
   id="svg1253"
   version="1.1"
   viewBox="0 0 507.99999 285.75001"
   height="1080"
   width="1920"
   xmlns:xlink="http://www.w3.org/1999/xlink"
   xmlns="http://www.w3.org/2000/svg"
   xmlns:svg="http://www.w3.org/2000/svg">
  <defs
     id="defs1247">
    <linearGradient
       y2="138.25"
       x2="1058.3334"
       y1="402.83334"
       x1="555.625"
       gradientTransform="translate(0,4349.8117)"
       gradientUnits="userSpaceOnUse"
       id="linearGradient1200"
       xlink:href="#linearGradient964" />
    <linearGradient
       id="linearGradient964">
      <stop
         id="stop960"
         offset="0"
         style="stop-color:#f2f2f2;stop-opacity:1;" />
      <stop
         id="stop962"
         offset="1"
         style="stop-color:#f2f2f2;stop-opacity:1" />
    </linearGradient>
  </defs>
  <metadata
     id="metadata1250" />
  <g
     transform="translate(0,-11.249983)"
     id="layer1">
    <g
       id="g1944"
       transform="translate(-582.08331,-4428.1286)">
      <rect
         style="color:#000000;clip-rule:nonzero;display:inline;overflow:visible;visibility:visible;opacity:1;isolation:auto;mix-blend-mode:normal;color-interpolation:sRGB;color-interpolation-filters:linearRGB;solid-color:#000000;solid-opacity:1;fill:url(#linearGradient1200);fill-opacity:1;fill-rule:nonzero;stroke:none;stroke-width:0.079375;stroke-linecap:round;stroke-linejoin:round;stroke-miterlimit:4;stroke-dasharray:none;stroke-dashoffset:0;stroke-opacity:1;color-rendering:auto;image-rendering:auto;shape-rendering:auto;text-rendering:auto;enable-background:accumulate"
         id="rect1198"
         width="508"
         height="285.75"
         x="582.08331"
         y="4439.3784" />
      <path
         id="path1431"
         d="m 902.87045,4525.4007 -135.08323,126.9717 72.75629,72.7562 h 249.53979 v -91.6406 z"
         style="opacity:0.1;fill:#000000;fill-rule:evenodd;stroke:none;stroke-width:0.264583px;stroke-linecap:butt;stroke-linejoin:miter;stroke-opacity:1" />
      <rect
         rx="0"
         ry="11.024322"
         y="4523.3833"
         x="764.64581"
         height="132.29166"
         width="142.87498"
         id="rect1417"
         style="color:#000000;clip-rule:nonzero;display:inline;overflow:visible;visibility:visible;isolation:auto;mix-blend-mode:normal;color-interpolation:sRGB;color-interpolation-filters:linearRGB;solid-color:#000000;solid-opacity:1;fill:#5499ff;fill-opacity:1;fill-rule:nonzero;stroke:none;stroke-width:1.4083;stroke-linecap:round;stroke-linejoin:round;stroke-miterlimit:4;stroke-dasharray:none;stroke-dashoffset:0;stroke-opacity:1;color-rendering:auto;image-rendering:auto;shape-rendering:auto;text-rendering:auto;enable-background:accumulate" />
      <path
         id="path1419"
         d="m 775.2291,4555.1337 v 26.4583 h 26.45833 v -26.4583 z m 31.75,0 v 26.4583 h 26.45833 v -26.4583 z m 31.75,0 v 26.4583 h 26.45833 v -26.4583 z m 31.75,0 v 26.4583 h 26.45833 v -26.4583 z m -95.25,31.75 v 26.4583 h 26.45833 v -26.4583 z m 31.75,0 v 26.4583 h 26.45833 v -26.4583 z m 31.75,0 v 26.4583 h 26.45833 v -26.4583 z m 31.75,0 v 26.4583 h 26.45833 v -26.4583 z m -95.25,31.75 v 26.4583 h 26.45833 v -26.4583 z m 31.75,0 v 26.4583 h 26.45833 v -26.4583 z m 31.75,0 v 26.4583 h 26.45833 v -26.4583 z m 31.75,0 v 26.4583 h 26.45833 v -26.4583 z"
         style="fill:#ffffff;fill-rule:evenodd;stroke:none;stroke-width:0.264583px;stroke-linecap:butt;stroke-linejoin:miter;stroke-opacity:1" />
      <path
         id="path1421"
         d="m 796.39575,4544.5504 h 15.875 v -31.75 h -15.875 z"
         style="fill:#ffffff;fill-rule:evenodd;stroke:#5499ff;stroke-width:7.9375;stroke-linecap:butt;stroke-linejoin:round;stroke-miterlimit:4;stroke-dasharray:none;stroke-opacity:1" />
      <path
         style="fill:#ffffff;fill-rule:evenodd;stroke:#5499ff;stroke-width:7.9375;stroke-linecap:butt;stroke-linejoin:round;stroke-miterlimit:4;stroke-dasharray:none;stroke-opacity:1"
         d="m 859.89575,4544.5504 h 15.875 v -31.75 h -15.875 z"
         id="path1423" />
      <rect
         rx="0"
         ry="11.024322"
         y="4523.3833"
         x="764.64581"
         height="132.29166"
         width="142.87498"
         id="rect16310"
         style="color:#000000;clip-rule:nonzero;display:inline;overflow:visible;visibility:visible;isolation:auto;mix-blend-mode:normal;color-interpolation:sRGB;color-interpolation-filters:linearRGB;solid-color:#000000;solid-opacity:1;fill:#5499ff;fill-opacity:1;fill-rule:nonzero;stroke:none;stroke-width:1.4083;stroke-linecap:round;stroke-linejoin:round;stroke-miterlimit:4;stroke-dasharray:none;stroke-dashoffset:0;stroke-opacity:1;color-rendering:auto;image-rendering:auto;shape-rendering:auto;text-rendering:auto;enable-background:accumulate" />
      <path
         id="path16312"
         d="m 775.2291,4555.1337 v 26.4583 h 26.45833 v -26.4583 z m 31.75,0 v 26.4583 h 26.45833 v -26.4583 z m 31.75,0 v 26.4583 h 26.45833 v -26.4583 z m 31.75,0 v 26.4583 h 26.45833 v -26.4583 z m -95.25,31.75 v 26.4583 h 26.45833 v -26.4583 z m 31.75,0 v 26.4583 h 26.45833 v -26.4583 z m 31.75,0 v 26.4583 h 26.45833 v -26.4583 z m 31.75,0 v 26.4583 h 26.45833 v -26.4583 z m -95.25,31.75 v 26.4583 h 26.45833 v -26.4583 z m 31.75,0 v 26.4583 h 26.45833 v -26.4583 z m 31.75,0 v 26.4583 h 26.45833 v -26.4583 z m 31.75,0 v 26.4583 h 26.45833 v -26.4583 z"
         style="fill:#ffffff;fill-rule:evenodd;stroke:none;stroke-width:0.264583px;stroke-linecap:butt;stroke-linejoin:miter;stroke-opacity:1" />
      <path
         id="path16314"
         d="m 796.39575,4544.5504 h 15.875 v -31.75 h -15.875 z"
         style="fill:#ffffff;fill-rule:evenodd;stroke:#5499ff;stroke-width:7.9375;stroke-linecap:butt;stroke-linejoin:round;stroke-miterlimit:4;stroke-dasharray:none;stroke-opacity:1" />
      <path
         style="fill:#ffffff;fill-rule:evenodd;stroke:#5499ff;stroke-width:7.9375;stroke-linecap:butt;stroke-linejoin:round;stroke-miterlimit:4;stroke-dasharray:none;stroke-opacity:1"
         d="m 859.89575,4544.5504 h 15.875 v -31.75 h -15.875 z"
         id="path16316" />
      <rect
         rx="0"
         ry="11.024322"
         y="4523.3833"
         x="764.64581"
         height="132.29166"
         width="142.87498"
         id="rect16318"
         style="color:#000000;clip-rule:nonzero;display:inline;overflow:visible;visibility:visible;isolation:auto;mix-blend-mode:normal;color-interpolation:sRGB;color-interpolation-filters:linearRGB;solid-color:#000000;solid-opacity:1;fill:#5499ff;fill-opacity:1;fill-rule:nonzero;stroke:none;stroke-width:1.4083;stroke-linecap:round;stroke-linejoin:round;stroke-miterlimit:4;stroke-dasharray:none;stroke-dashoffset:0;stroke-opacity:1;color-rendering:auto;image-rendering:auto;shape-rendering:auto;text-rendering:auto;enable-background:accumulate" />
      <path
         id="path16320"
         d="m 775.2291,4555.1337 v 26.4583 h 26.45833 v -26.4583 z m 31.75,0 v 26.4583 h 26.45833 v -26.4583 z m 31.75,0 v 26.4583 h 26.45833 v -26.4583 z m 31.75,0 v 26.4583 h 26.45833 v -26.4583 z m -95.25,31.75 v 26.4583 h 26.45833 v -26.4583 z m 31.75,0 v 26.4583 h 26.45833 v -26.4583 z m 31.75,0 v 26.4583 h 26.45833 v -26.4583 z m 31.75,0 v 26.4583 h 26.45833 v -26.4583 z m -95.25,31.75 v 26.4583 h 26.45833 v -26.4583 z m 31.75,0 v 26.4583 h 26.45833 v -26.4583 z m 31.75,0 v 26.4583 h 26.45833 v -26.4583 z m 31.75,0 v 26.4583 h 26.45833 v -26.4583 z"
         style="fill:#ffffff;fill-rule:evenodd;stroke:none;stroke-width:0.264583px;stroke-linecap:butt;stroke-linejoin:miter;stroke-opacity:1" />
      <path
         id="path16322"
         d="m 796.39575,4544.5504 h 15.875 v -31.75 h -15.875 z"
         style="fill:#ffffff;fill-rule:evenodd;stroke:#5499ff;stroke-width:7.9375;stroke-linecap:butt;stroke-linejoin:round;stroke-miterlimit:4;stroke-dasharray:none;stroke-opacity:1" />
      <path
         style="fill:#ffffff;fill-rule:evenodd;stroke:#5499ff;stroke-width:7.9375;stroke-linecap:butt;stroke-linejoin:round;stroke-miterlimit:4;stroke-dasharray:none;stroke-opacity:1"
         d="m 859.89575,4544.5504 h 15.875 v -31.75 h -15.875 z"
         id="path16324" />
      <rect
         rx="0"
         ry="11.024322"
         y="4523.3833"
         x="764.64581"
         height="132.29166"
         width="142.87498"
         id="rect16326"
         style="color:#000000;clip-rule:nonzero;display:inline;overflow:visible;visibility:visible;isolation:auto;mix-blend-mode:normal;color-interpolation:sRGB;color-interpolation-filters:linearRGB;solid-color:#000000;solid-opacity:1;fill:#5499ff;fill-opacity:1;fill-rule:nonzero;stroke:none;stroke-width:1.4083;stroke-linecap:round;stroke-linejoin:round;stroke-miterlimit:4;stroke-dasharray:none;stroke-dashoffset:0;stroke-opacity:1;color-rendering:auto;image-rendering:auto;shape-rendering:auto;text-rendering:auto;enable-background:accumulate" />
      <path
         id="path16328"
         d="m 775.2291,4555.1337 v 26.4583 h 26.45833 v -26.4583 z m 31.75,0 v 26.4583 h 26.45833 v -26.4583 z m 31.75,0 v 26.4583 h 26.45833 v -26.4583 z m 31.75,0 v 26.4583 h 26.45833 v -26.4583 z m -95.25,31.75 v 26.4583 h 26.45833 v -26.4583 z m 31.75,0 v 26.4583 h 26.45833 v -26.4583 z m 31.75,0 v 26.4583 h 26.45833 v -26.4583 z m 31.75,0 v 26.4583 h 26.45833 v -26.4583 z m -95.25,31.75 v 26.4583 h 26.45833 v -26.4583 z m 31.75,0 v 26.4583 h 26.45833 v -26.4583 z m 31.75,0 v 26.4583 h 26.45833 v -26.4583 z m 31.75,0 v 26.4583 h 26.45833 v -26.4583 z"
         style="fill:#ffffff;fill-rule:evenodd;stroke:none;stroke-width:0.264583px;stroke-linecap:butt;stroke-linejoin:miter;stroke-opacity:1" />
      <path
         id="path16330"
         d="m 796.39575,4544.5504 h 15.875 v -31.75 h -15.875 z"
         style="fill:#ffffff;fill-rule:evenodd;stroke:#5499ff;stroke-width:7.9375;stroke-linecap:butt;stroke-linejoin:round;stroke-miterlimit:4;stroke-dasharray:none;stroke-opacity:1" />
      <path
         style="fill:#ffffff;fill-rule:evenodd;stroke:#5499ff;stroke-width:7.9375;stroke-linecap:butt;stroke-linejoin:round;stroke-miterlimit:4;stroke-dasharray:none;stroke-opacity:1"
         d="m 859.89575,4544.5504 h 15.875 v -31.75 h -15.875 z"
         id="path16332" />
      <rect
         rx="0"
         ry="11.024322"
         y="4523.3833"
         x="764.64581"
         height="132.29166"
         width="142.87498"
         id="rect16334"
         style="color:#000000;clip-rule:nonzero;display:inline;overflow:visible;visibility:visible;isolation:auto;mix-blend-mode:normal;color-interpolation:sRGB;color-interpolation-filters:linearRGB;solid-color:#000000;solid-opacity:1;fill:#5499ff;fill-opacity:1;fill-rule:nonzero;stroke:none;stroke-width:1.4083;stroke-linecap:round;stroke-linejoin:round;stroke-miterlimit:4;stroke-dasharray:none;stroke-dashoffset:0;stroke-opacity:1;color-rendering:auto;image-rendering:auto;shape-rendering:auto;text-rendering:auto;enable-background:accumulate" />
      <path
         id="path16336"
         d="m 775.2291,4555.1337 v 26.4583 h 26.45833 v -26.4583 z m 31.75,0 v 26.4583 h 26.45833 v -26.4583 z m 31.75,0 v 26.4583 h 26.45833 v -26.4583 z m 31.75,0 v 26.4583 h 26.45833 v -26.4583 z m -95.25,31.75 v 26.4583 h 26.45833 v -26.4583 z m 31.75,0 v 26.4583 h 26.45833 v -26.4583 z m 31.75,0 v 26.4583 h 26.45833 v -26.4583 z m 31.75,0 v 26.4583 h 26.45833 v -26.4583 z m -95.25,31.75 v 26.4583 h 26.45833 v -26.4583 z m 31.75,0 v 26.4583 h 26.45833 v -26.4583 z m 31.75,0 v 26.4583 h 26.45833 v -26.4583 z m 31.75,0 v 26.4583 h 26.45833 v -26.4583 z"
         style="fill:#ffffff;fill-rule:evenodd;stroke:none;stroke-width:0.264583px;stroke-linecap:butt;stroke-linejoin:miter;stroke-opacity:1" />
      <path
         id="path16338"
         d="m 796.39575,4544.5504 h 15.875 v -31.75 h -15.875 z"
         style="fill:#ffffff;fill-rule:evenodd;stroke:#5499ff;stroke-width:7.9375;stroke-linecap:butt;stroke-linejoin:round;stroke-miterlimit:4;stroke-dasharray:none;stroke-opacity:1" />
      <path
         style="fill:#ffffff;fill-rule:evenodd;stroke:#5499ff;stroke-width:7.9375;stroke-linecap:butt;stroke-linejoin:round;stroke-miterlimit:4;stroke-dasharray:none;stroke-opacity:1"
         d="m 859.89575,4544.5504 h 15.875 v -31.75 h -15.875 z"
         id="path16340" />
      <rect
         rx="0"
         ry="11.024322"
         y="4523.3833"
         x="764.64581"
         height="132.29166"
         width="142.87498"
         id="rect16342"
         style="color:#000000;clip-rule:nonzero;display:inline;overflow:visible;visibility:visible;isolation:auto;mix-blend-mode:normal;color-interpolation:sRGB;color-interpolation-filters:linearRGB;solid-color:#000000;solid-opacity:1;fill:#c5553c;fill-opacity:1;fill-rule:nonzero;stroke:none;stroke-width:1.4083;stroke-linecap:round;stroke-linejoin:round;stroke-miterlimit:4;stroke-dasharray:none;stroke-dashoffset:0;stroke-opacity:1;color-rendering:auto;image-rendering:auto;shape-rendering:auto;text-rendering:auto;enable-background:accumulate" />
      <path
         id="path16344"
         d="m 775.2291,4555.1337 v 26.4583 h 26.45833 v -26.4583 z m 31.75,0 v 26.4583 h 26.45833 v -26.4583 z m 31.75,0 v 26.4583 h 26.45833 v -26.4583 z m 31.75,0 v 26.4583 h 26.45833 v -26.4583 z m -95.25,31.75 v 26.4583 h 26.45833 v -26.4583 z m 31.75,0 v 26.4583 h 26.45833 v -26.4583 z m 31.75,0 v 26.4583 h 26.45833 v -26.4583 z m 31.75,0 v 26.4583 h 26.45833 v -26.4583 z m -95.25,31.75 v 26.4583 h 26.45833 v -26.4583 z m 31.75,0 v 26.4583 h 26.45833 v -26.4583 z m 31.75,0 v 26.4583 h 26.45833 v -26.4583 z m 31.75,0 v 26.4583 h 26.45833 v -26.4583 z"
         style="fill:#ffffff;fill-rule:evenodd;stroke:none;stroke-width:0.264583px;stroke-linecap:butt;stroke-linejoin:miter;stroke-opacity:1" />
      <path
         id="path16346"
         d="m 796.39575,4544.5504 h 15.875 v -31.75 h -15.875 z"
         style="fill:#ffffff;fill-rule:evenodd;stroke:#c5553c;stroke-width:7.9375;stroke-linecap:butt;stroke-linejoin:round;stroke-miterlimit:4;stroke-dasharray:none;stroke-opacity:1" />
      <path
         style="fill:#ffffff;fill-rule:evenodd;stroke:#c5553c;stroke-width:7.9375;stroke-linecap:butt;stroke-linejoin:round;stroke-miterlimit:4;stroke-dasharray:none;stroke-opacity:1"
         d="m 859.89575,4544.5504 h 15.875 v -31.75 h -15.875 z"
         id="path16348" />
    </g>
  </g>
</svg>
