<?xml version="1.0" encoding="UTF-8" standalone="no"?>
<!-- Created with Inkscape (http://www.inkscape.org/) -->

<svg
   width="199.008"
   height="70.431778"
   viewBox="0 0 199.008 70.431778"
   version="1.1"
   id="svg5"
   xmlns="http://www.w3.org/2000/svg"
   xmlns:svg="http://www.w3.org/2000/svg">
  <defs
     id="defs2" />
  <g
     id="layer1"
     transform="translate(-24.120134,-167.68446)">
    <g
       aria-label="here&amp;now"
       id="text287"
       style="font-weight:bold;font-size:102.156px;font-family:'Harabara Mais';-inkscape-font-specification:'Harabara Mais Bold';white-space:pre;stroke-width:7.6617">
      <path
         d="m 47.065329,190.43014 c 8.779031,0 13.36807,4.98808 13.36807,14.76473 v 31.92375 h 9.577125 v -31.92375 c 0,-15.16378 -7.182844,-22.94519 -21.548531,-22.94519 -6.38475,0 -11.372836,2.79333 -14.964258,8.37998 v -17.15901 c 0,-3.99047 -1.995234,-5.78618 -5.985703,-5.78618 h -3.391898 v 69.43415 h 9.377601 v -31.5247 c 0,-9.97617 4.389516,-15.16378 13.567594,-15.16378 z"
         id="path347" />
      <path
         d="m 118.89377,205.79344 c 0.19952,0 -9.77665,0 -29.928519,0 1.197141,-9.97617 6.185227,-15.16378 14.964259,-15.16378 8.77903,0 13.76712,5.18761 14.96426,15.16378 z m 9.17807,7.78142 c 0.99762,-20.75044 -6.98332,-31.32518 -23.94281,-31.32518 -16.360919,0 -24.54138,9.3776 -24.54138,27.93328 0.199523,18.7552 8.180461,27.93328 23.94281,27.93328 12.96903,0 20.94996,-5.78618 23.74329,-17.55806 h -5.9857 c -2.39428,0 -4.18999,1.19714 -5.38714,3.19237 -1.99523,3.59142 -5.9857,5.38713 -11.57235,5.78618 -9.577129,0 -14.565215,-5.18761 -15.363309,-15.96187 26.337089,0 39.306119,0 39.106589,0 z"
         id="path349" />
      <path
         d="m 138.64659,237.11862 h 9.3776 v -31.12565 c 0,-8.97856 4.78856,-13.5676 14.16616,-13.5676 h 4.18999 v -9.3776 h -3.3919 c -16.36092,0 -24.34185,8.18046 -24.34185,24.34186 z"
         id="path351" />
      <path
         d="m 213.86693,205.79344 c 0.19952,0 -9.77665,0 -29.92852,0 1.19714,-9.97617 6.18523,-15.16378 14.96426,-15.16378 8.77903,0 13.76712,5.18761 14.96426,15.16378 z m 9.17807,7.78142 c 0.99762,-20.75044 -6.98332,-31.32518 -23.94281,-31.32518 -16.36092,0 -24.54138,9.3776 -24.54138,27.93328 0.19952,18.7552 8.18046,27.93328 23.94281,27.93328 12.96903,0 20.94996,-5.78618 23.74329,-17.55806 h -5.9857 c -2.39428,0 -4.18999,1.19714 -5.38714,3.19237 -1.99523,3.59142 -5.9857,5.38713 -11.57235,5.78618 -9.57713,0 -14.56522,-5.18761 -15.36331,-15.96187 26.33709,0 39.30612,0 39.10659,0 z"
         id="path353" />
    </g>
  </g>
</svg>
