<?xml version="1.0" encoding="UTF-8" standalone="no"?>
<!-- Created with Inkscape (http://www.inkscape.org/) -->

<svg
   width="460.69962"
   height="102.38454"
   viewBox="0 0 460.69962 102.38454"
   version="1.1"
   id="svg5"
   xmlns="http://www.w3.org/2000/svg"
   xmlns:svg="http://www.w3.org/2000/svg">
  <defs
     id="defs2">
    <rect
       x="91.968437"
       y="98.537613"
       width="105.81063"
       height="56.776436"
       id="rect3194" />
    <rect
       x="91.499214"
       y="95.253029"
       width="101.11836"
       height="66.630196"
       id="rect3182" />
    <rect
       x="125.04892"
       y="111.20674"
       width="35.895844"
       height="23.930563"
       id="rect3176" />
    <rect
       x="247.98633"
       y="159.53709"
       width="32.142033"
       height="38.94582"
       id="rect3120" />
  </defs>
  <g
     id="layer1"
     transform="translate(-24.120134,-137.51331)">
    <g
       aria-label="here&amp;now"
       id="text287"
       style="font-weight:bold;font-size:102.156px;font-family:'Harabara Mais';-inkscape-font-specification:'Harabara Mais Bold';white-space:pre;stroke-width:7.6617">
      <path
         d="m 47.065329,190.43014 c 8.779031,0 13.36807,4.98808 13.36807,14.76473 v 31.92375 h 9.577125 v -31.92375 c 0,-15.16378 -7.182844,-22.94519 -21.548531,-22.94519 -6.38475,0 -11.372836,2.79333 -14.964258,8.37998 v -17.15901 c 0,-3.99047 -1.995234,-5.78618 -5.985703,-5.78618 h -3.391898 v 69.43415 h 9.377601 v -31.5247 c 0,-9.97617 4.389516,-15.16378 13.567594,-15.16378 z"
         id="path347" />
      <path
         d="m 118.89377,205.79344 c 0.19952,0 -9.77665,0 -29.928519,0 1.197141,-9.97617 6.185227,-15.16378 14.964259,-15.16378 8.77903,0 13.76712,5.18761 14.96426,15.16378 z m 9.17807,7.78142 c 0.99762,-20.75044 -6.98332,-31.32518 -23.94281,-31.32518 -16.360919,0 -24.54138,9.3776 -24.54138,27.93328 0.199523,18.7552 8.180461,27.93328 23.94281,27.93328 12.96903,0 20.94996,-5.78618 23.74329,-17.55806 h -5.9857 c -2.39428,0 -4.18999,1.19714 -5.38714,3.19237 -1.99523,3.59142 -5.9857,5.38713 -11.57235,5.78618 -9.577129,0 -14.565215,-5.18761 -15.363309,-15.96187 26.337089,0 39.306119,0 39.106589,0 z"
         id="path349" />
      <path
         d="m 138.64659,237.11862 h 9.3776 v -31.12565 c 0,-8.97856 4.78856,-13.5676 14.16616,-13.5676 h 4.18999 v -9.3776 h -3.3919 c -16.36092,0 -24.34185,8.18046 -24.34185,24.34186 z"
         id="path351" />
      <path
         d="m 213.86693,205.79344 c 0.19952,0 -9.77665,0 -29.92852,0 1.19714,-9.97617 6.18523,-15.16378 14.96426,-15.16378 8.77903,0 13.76712,5.18761 14.96426,15.16378 z m 9.17807,7.78142 c 0.99762,-20.75044 -6.98332,-31.32518 -23.94281,-31.32518 -16.36092,0 -24.54138,9.3776 -24.54138,27.93328 0.19952,18.7552 8.18046,27.93328 23.94281,27.93328 12.96903,0 20.94996,-5.78618 23.74329,-17.55806 h -5.9857 c -2.39428,0 -4.18999,1.19714 -5.38714,3.19237 -1.99523,3.59142 -5.9857,5.38713 -11.57235,5.78618 -9.57713,0 -14.56522,-5.18761 -15.36331,-15.96187 26.33709,0 39.30612,0 39.10659,0 z"
         id="path353" />
      <path
         d="m 323.20577,190.43014 c 8.77903,0 13.36807,4.58904 13.36807,13.76712 v 27.13518 c 0,3.99047 1.99524,5.78618 5.9857,5.78618 h 3.59143 v -31.92375 c 0,-15.3633 -7.58189,-23.14472 -22.9452,-23.14472 -15.56283,0 -23.14472,7.78142 -22.94519,23.14472 v 31.92375 h 9.3776 v -32.92136 c 0,-9.17808 4.38951,-13.76712 13.56759,-13.76712 z"
         id="path357" />
      <path
         d="m 381.26708,182.24968 c -16.36092,0 -24.34186,9.3776 -24.34186,27.93328 0,18.7552 7.98094,27.93328 23.94281,27.93328 16.36092,0 24.74091,-9.17808 24.74091,-27.93328 0,-18.55568 -8.18046,-27.93328 -24.34186,-27.93328 z m -15.16378,27.93328 c 0,-12.96902 4.98808,-19.5533 15.16378,-19.5533 9.97617,0 15.16378,6.38475 15.16378,19.5533 0,12.7695 -5.18761,19.35377 -15.16378,19.35377 -10.1757,0 -15.16378,-6.38475 -15.16378,-19.35377 z"
         id="path359" />
      <path
         d="m 447.30934,194.81965 12.37046,42.29897 h 9.77664 l 15.36331,-54.07085 h -4.18999 c -4.58904,0 -7.18285,1.99524 -7.98094,5.9857 l -8.18046,34.31803 -10.97379,-40.30373 h -12.37045 l -10.97379,40.30373 -9.57713,-40.30373 h -10.57474 l 15.16378,54.07085 h 9.97617 z"
         id="path361" />
      <g
         id="g1017"
         transform="matrix(1.196056,0,0,1.196056,-47.45735,-47.193516)">
        <g
           id="g1021"
           transform="matrix(1.0828428,0,0,1.0828428,-20.880016,-18.074217)"
           style="display:inline">
          <ellipse
             style="fill:#000000;stroke-width:0.33473"
             id="path984"
             cx="258.47116"
             cy="226.9482"
             rx="24.595741"
             ry="11.411354" />
          <path
             d="m 258.38049,159.30671 c -14.64726,0 -26.52153,11.87427 -26.52153,26.52152 0,6.81887 2.57438,13.03615 6.80326,17.73457 l 17.46933,22.79455 c 1.23699,1.61405 3.26117,1.61405 4.49816,0 l 17.46932,-22.79455 c 4.2287,-4.69888 6.80326,-10.9157 6.80326,-17.73457 -4e-5,-14.64725 -11.87428,-26.52152 -26.52152,-26.52152 z m 0,34.98545 c -6.12322,0 -11.08685,-4.96364 -11.08685,-11.08685 0,-6.12321 4.96363,-11.08685 11.08685,-11.08685 6.12321,0 11.08685,4.96364 11.08685,11.08685 4e-5,6.12321 -4.96364,11.08685 -11.08685,11.08685 z"
             fill="#c5553c"
             id="path964"
             style="stroke-width:0.351575" />
        </g>
        <path
           style="display:none;fill:#000000;fill-opacity:0;stroke:#c5553c;stroke-width:9.33234;stroke-dasharray:none;stroke-opacity:1"
           d="m 243.62274,206.40074 c 0,0 -14.12002,15.78957 -4.22956,24.13336 9.9726,8.41308 33.65535,3.01783 36.6953,1.49744 5.02568,-5.84203 5.7363,-9.9726 13.56179,-18.66447"
           id="path1082" />
        <path
           style="display:none;fill:#000000;fill-opacity:0;stroke:#c5553c;stroke-width:9.33234;stroke-dasharray:none;stroke-opacity:1"
           d="m 268.50249,213.61587 19.4062,19.40621"
           id="path1815" />
        <text
           xml:space="preserve"
           transform="matrix(0.83608125,0,0,0.83608125,39.678201,39.457614)"
           id="text3118"
           style="font-style:normal;font-variant:normal;font-weight:bold;font-stretch:normal;font-size:13.3333px;font-family:'Harabara Mais';-inkscape-font-specification:'Harabara Mais Bold';white-space:pre;shape-inside:url(#rect3120);display:inline;fill:#000000;fill-opacity:0;stroke:#c5553c;stroke-width:11.162;stroke-dasharray:none;stroke-opacity:1" />
        <path
           style="display:none;fill:#c5553c;fill-opacity:1;stroke:none;stroke-width:0.334433;stroke-dasharray:none;stroke-opacity:1"
           d="m 257.27854,185.42891 -3.61763,-4.8838 0.54264,-6.87349 2.35146,-3.43675 5.06468,0.72353 3.43674,3.25586 v 2.89411 3.07498 l -3.25586,3.61763 -2.17058,2.17058 -4.16027,1.80881 -3.07498,3.97939 1.62793,3.07498 13.02346,0.72353 5.78821,-8.50143 v -9.58671 l -0.72353,-4.8838 -4.52204,-3.79851 -5.60732,-2.8941 h -4.70291 l -6.69261,1.62793 -4.52204,5.42644 -0.18088,12.48082 1.44705,5.7882 2.53234,0.18089 2.71321,-3.07499 2.53234,-1.98969 z"
           id="path3198" />
        <text
           xml:space="preserve"
           transform="matrix(0.83608125,0,0,0.83608125,39.678201,39.457614)"
           id="text3174"
           style="font-style:normal;font-variant:normal;font-weight:bold;font-stretch:normal;font-size:13.3333px;font-family:'Harabara Mais';-inkscape-font-specification:'Harabara Mais Bold';white-space:pre;shape-inside:url(#rect3176);display:inline;fill:#000000;fill-opacity:0;stroke:#c5553c;stroke-width:11.162;stroke-dasharray:none;stroke-opacity:1" />
        <text
           xml:space="preserve"
           transform="matrix(0.83608125,0,0,0.83608125,39.678201,39.457614)"
           id="text3180"
           style="font-style:normal;font-variant:normal;font-weight:bold;font-stretch:normal;font-size:13.3333px;font-family:'Harabara Mais';-inkscape-font-specification:'Harabara Mais Bold';white-space:pre;shape-inside:url(#rect3182);display:inline;fill:#000000;fill-opacity:0;stroke:#c5553c;stroke-width:11.162;stroke-dasharray:none;stroke-opacity:1" />
        <text
           xml:space="preserve"
           transform="matrix(1.7667633,0,0,1.7667633,89.560321,-6.8506706)"
           id="text3192"
           style="font-style:normal;font-variant:normal;font-weight:bold;font-stretch:normal;font-size:13.3333px;font-family:'Harabara Mais';-inkscape-font-specification:'Harabara Mais Bold';white-space:pre;shape-inside:url(#rect3194);display:inline;fill:#000000;fill-opacity:1;stroke:none;stroke-width:0.4;stroke-dasharray:none;stroke-opacity:1" />
      </g>
      <g
         id="layer2" />
    </g>
  </g>
</svg>
