<?xml version="1.0" encoding="UTF-8" standalone="no"?>
<!-- Created with Inkscape (http://www.inkscape.org/) -->

<svg
   width="184.56302"
   height="56.066086"
   viewBox="0 0 184.56302 56.066086"
   version="1.1"
   id="svg5"
   xmlns="http://www.w3.org/2000/svg"
   xmlns:svg="http://www.w3.org/2000/svg">
  <defs
     id="defs2" />
  <g
     id="layer1"
     transform="translate(-300.25674,-182.05016)">
    <g
       aria-label="here&amp;now"
       id="text287"
       style="font-weight:bold;font-size:102.156px;font-family:'Harabara Mais';-inkscape-font-specification:'Harabara Mais Bold';white-space:pre;stroke-width:7.6617">
      <path
         d="m 323.20577,190.43014 c 8.77903,0 13.36807,4.58904 13.36807,13.76712 v 27.13518 c 0,3.99047 1.99524,5.78618 5.9857,5.78618 h 3.59143 v -31.92375 c 0,-15.3633 -7.58189,-23.14472 -22.9452,-23.14472 -15.56283,0 -23.14472,7.78142 -22.94519,23.14472 v 31.92375 h 9.3776 v -32.92136 c 0,-9.17808 4.38951,-13.76712 13.56759,-13.76712 z"
         id="path357" />
      <path
         d="m 381.26708,182.24968 c -16.36092,0 -24.34186,9.3776 -24.34186,27.93328 0,18.7552 7.98094,27.93328 23.94281,27.93328 16.36092,0 24.74091,-9.17808 24.74091,-27.93328 0,-18.55568 -8.18046,-27.93328 -24.34186,-27.93328 z m -15.16378,27.93328 c 0,-12.96902 4.98808,-19.5533 15.16378,-19.5533 9.97617,0 15.16378,6.38475 15.16378,19.5533 0,12.7695 -5.18761,19.35377 -15.16378,19.35377 -10.1757,0 -15.16378,-6.38475 -15.16378,-19.35377 z"
         id="path359" />
      <path
         d="m 447.30934,194.81965 12.37046,42.29897 h 9.77664 l 15.36331,-54.07085 h -4.18999 c -4.58904,0 -7.18285,1.99524 -7.98094,5.9857 l -8.18046,34.31803 -10.97379,-40.30373 h -12.37045 l -10.97379,40.30373 -9.57713,-40.30373 h -10.57474 l 15.16378,54.07085 h 9.97617 z"
         id="path361" />
    </g>
  </g>
</svg>
