<?xml version="1.0" encoding="UTF-8" standalone="no"?>
<!-- Created with Inkscape (http://www.inkscape.org/) -->

<svg
   width="68.698578"
   height="88.407822"
   viewBox="0 0 68.698578 88.407822"
   version="1.1"
   id="svg5"
   xmlns="http://www.w3.org/2000/svg"
   xmlns:svg="http://www.w3.org/2000/svg">
  <defs
     id="defs2" />
  <g
     id="layer1"
     transform="translate(-227.85895,-137.51331)">
    <g
       aria-label="here&amp;now"
       id="text287"
       style="font-weight:bold;font-size:102.156px;font-family:'Harabara Mais';-inkscape-font-specification:'Harabara Mais Bold';white-space:pre;stroke-width:7.6617">
      <g
         id="g1017"
         transform="matrix(1.196056,0,0,1.196056,-47.45735,-47.193516)">
        <g
           id="g1021"
           transform="matrix(1.0828428,0,0,1.0828428,-20.880016,-18.074217)"
           style="display:inline">
          <path
             d="m 258.38049,159.30671 c -14.64726,0 -26.52153,11.87427 -26.52153,26.52152 0,6.81887 2.57438,13.03615 6.80326,17.73457 l 17.46933,22.79455 c 1.23699,1.61405 3.26117,1.61405 4.49816,0 l 17.46932,-22.79455 c 4.2287,-4.69888 6.80326,-10.9157 6.80326,-17.73457 -4e-5,-14.64725 -11.87428,-26.52152 -26.52152,-26.52152 z m 0,34.98545 c -6.12322,0 -11.08685,-4.96364 -11.08685,-11.08685 0,-6.12321 4.96363,-11.08685 11.08685,-11.08685 6.12321,0 11.08685,4.96364 11.08685,11.08685 4e-5,6.12321 -4.96364,11.08685 -11.08685,11.08685 z"
             fill="#c5553c"
             id="path964"
             style="stroke-width:0.351575" />
        </g>
      </g>
    </g>
  </g>
</svg>
